<?xml version="1.0" encoding="UTF-8"?><svg id="Layer_1" xmlns="http://www.w3.org/2000/svg" viewBox="0 0 99.02 116.02"><defs><style>.cls-1{fill:#231f20;}</style></defs><path class="cls-1" d="M67.6,15.87c-.16,8.62-7.24,13.26-15.99,15.49,2.12-4.96,3.33-10.36,3.44-16.02.1-5.36-.8-10.52-2.53-15.33,11.69,3.95,15.17,10.62,15.08,15.87M88.45,49c-6.27.24-11.42-4.8-11.42-11.06,0-1.56.32-3.04.9-4.39-2.08,3.37-3.41,8.06-4.8,13.48-.89,3.46-1.86,7.18-3.16,11.01,1.89,1.62,3.75,3.24,5.56,4.88,7.73,6.95,14.87,14.66,16.84,25.2,2.35,11.24-2.24,21.8-13.73,27.48,5.45-16.22-6.86-28.06-19.07-38.06-3.02,3.73-6.31,7.77-10.97,11.08-7.23,5.01-12.74,7.9-20.78,7.9C12.46,96.52,0,84.79,0,70.31,0,60.73,5.45,52.36,13.59,47.79c-.09,1.03-.15,2.06-.15,3.11,0,15.89,10.98,29.35,26.17,34.05,5.62,1.74,11.76.15,15.86-4.09,1.23-1.27,2.36-2.56,3.41-3.88-3.68-2.99-7.31-5.83-10.42-8.56-7.08-6.09-13.74-12.71-20.12-19.52-11.09-11.85-13.71-31.24-3.04-41.62,3.01-2.93,7.19-6.21,12.39-7.1-5.74,26.76,13.63,41.91,31.45,57.16,1.22-3.68,2.14-7.25,2.99-10.56,2.8-10.9,5.49-19.54,15.07-19.87.27-.02.54-.03.82-.03,6.21,0,11.22,5.19,10.98,11.5-.22,5.74-4.86,10.41-10.56,10.63M59.18,100.18c4.34,0,7.86,3.55,7.86,7.92s-3.52,7.92-7.86,7.92-7.86-3.55-7.86-7.92,3.52-7.92,7.86-7.92"/></svg>