<?xml version="1.0" encoding="UTF-8"?><svg id="Layer_1" xmlns="http://www.w3.org/2000/svg" viewBox="0 0 792.58 116.02"><defs><style>.cls-1{fill:#fff;}</style></defs><path class="cls-1" d="M126.15,11.62c3.33.08,6.62.53,9.79,1.67,4.97,1.79,8.22,5.15,9.57,10.35.96,3.72,1.08,7.47.36,11.22-1.32,6.95-5.16,11.72-12.06,13.73-3.15.92-6.4,1.12-9.67,1.15-1.31.01-2.63,0-4.06,0,.14,1.37-.31,2.61.51,3.83,8.35,12.37,16.68,24.77,24.99,37.17.44.65.9.86,1.66.86,4.08-.04,8.16-.02,12.24-.02h1.19v-5.29c-3.66,0-7.24-.02-10.81.01-.67,0-1.1-.17-1.49-.76-6.87-10.26-13.77-20.5-20.65-30.74-.17-.25-.3-.53-.38-.68,2.49-.38,4.97-.55,7.34-1.16,8.39-2.18,14.15-7.25,16.5-15.83,1.04-3.79,1.24-7.65.72-11.55-.9-6.82-4.17-12.06-10.22-15.44-3.62-2.02-7.51-3.28-11.62-3.49-4.78-.25-9.58-.24-14.38-.3v5.21c3.48,0,6.97-.04,10.45.05M99.9,86.33v5.17h5.65V6.41h-16.85v5.16h11.2v74.76ZM310.06,66.3c-.35-4.32-1.8-8.18-4.66-11.48-2.93-3.38-6.64-5.59-10.81-6.95-4.07-1.33-8.25-2.31-12.37-3.51-3.77-1.1-7.6-2.05-11.24-3.49-3.75-1.49-6.67-4.2-7.88-8.19-2.27-7.48-.26-16.53,9.12-20.24,7.33-2.9,14.66-2.58,21.95.63.51-1.43,1.02-2.85,1.53-4.28-.25-.31-.77-.54-1.7-.94-6.52-2.83-13.25-3.03-20.08-1.55-5.22,1.13-9.75,3.54-13.11,7.81-3.92,4.98-4.86,10.76-4.21,16.91.66,6.24,4.01,10.68,9.37,13.59,2.12,1.15,4.4,2.1,6.72,2.76,5.66,1.63,11.4,3.02,17.08,4.58,1.54.42,3.06,1.03,4.49,1.73,8.16,4.01,10.5,10.02,9.99,17.76-.55,8.28-5.25,13.88-13.12,15.85-4.75,1.19-9.58,1.33-14.34.13-2.64-.66-5.18-1.73-7.85-2.64-.46,1.26-1.01,2.72-1.58,4.28.8.4,1.52.79,2.26,1.13,7.58,3.47,15.45,4.02,23.48,2.08,5.9-1.42,10.69-4.57,13.84-9.93,2.92-4.97,3.57-10.39,3.11-16.04M302.06,28.57h4.93V6.81h-4.93v21.77ZM255.99,91.97h4.97v-21.84h-4.97v21.84ZM22.12,6.18v5.45h14.2c-.18.49-.31.85-.45,1.21-9.41,24.09-18.83,48.19-28.22,72.29-.35.9-.77,1.26-1.76,1.21-1.95-.1-3.91-.03-5.89-.03v5.21h27.06v-5.23h-14.24c.15-.42.24-.69.34-.95,2.36-6.13,4.73-12.25,7.06-18.39.3-.79.7-.96,1.48-.96,9.23.02,18.46.02,27.69.02-.59-1.58-1.19-3.17-1.78-4.76-7.92.03-15.83.02-23.75.02h-1.4c.21-.57.37-1.04.55-1.5,6.64-17.16,14.16-36.42,20.8-53.59h-21.69ZM67.3,83.58c.32.86.63,1.73,1,2.77h-13.75v5.21h28.88v-5.17c-.41-.02.35-.05,0-.05-2.11,0-6.14-.05-8.25.02-.87.03-1.23-.27-1.53-1.06-7.44-19.67-14.91-39.32-22.38-58.98-1.16-3.05-2.31-6.09-3.55-9.34-.84,2.13-1.66,4.05-2.34,6.01-.2.58-.22,1.35-.01,1.91,7.29,19.57,14.61,39.13,21.93,58.69M202.61,22.17v64.14h-15.16v5.19h36.15v-5.21h-15.35V22.17h-5.64ZM175.41,31.14h-5.19V6.39h70.44v24.79h-5.26V11.66h-59.99v19.48ZM566.5,12.03h57.99v17.3h5.26V6.76h-63.24v5.27ZM624.51,86.67h-40.52v-36.18h32.47v-5.27h-32.47v-22.67h-5.64v64.14h-11.86v5.19h63.24v-23.72h-5.23v18.52ZM521.69,6.75c-5.72-.49-6.81-.27-12.5-.32v5.07c3.54-.02,2.5-.11,6.07.04,3.56.15,7.18.32,10.65,1.05,12.36,2.6,20.88,9.88,24.95,21.98,3.29,9.78,3.23,19.68-.08,29.47-3.58,10.6-10.91,17.42-21.49,20.73-4.55,1.42-9.25,1.82-13.99,1.83h-16.62s0-80.47,0-80.47h-16.73v4.86h11.35v75.62c-4.51,0-8.76,0-12.35,0v5.13c11.99,0,22.8.02,34.79-.01,3.97-.01,7.93-.3,11.82-1.21,10.88-2.54,19.66-8.17,25.4-17.96,6.16-10.49,7.46-21.88,5.05-33.67-3.99-19.57-18.62-30.6-36.33-32.14M792.45,66.3c-.35-4.32-1.8-8.18-4.66-11.48-2.93-3.38-6.64-5.59-10.8-6.95-4.07-1.33-8.25-2.31-12.37-3.51-3.77-1.1-7.6-2.05-11.24-3.49-3.75-1.49-6.67-4.2-7.88-8.19-2.27-7.48-.26-16.53,9.12-20.24,7.33-2.9,14.66-2.58,21.95.63.51-1.43,1.02-2.85,1.53-4.28-.25-.31-.77-.54-1.7-.94-6.52-2.83-13.24-3.03-20.08-1.55-5.22,1.13-9.75,3.54-13.11,7.81-3.92,4.98-4.86,10.76-4.21,16.91.66,6.24,4.01,10.68,9.37,13.59,2.12,1.15,4.4,2.1,6.72,2.76,5.66,1.63,11.4,3.02,17.08,4.58,1.54.42,3.06,1.03,4.49,1.73,8.16,4.01,10.5,10.02,9.99,17.76-.55,8.28-5.25,13.88-13.12,15.85-4.75,1.19-9.58,1.33-14.34.13-2.64-.66-5.18-1.73-7.85-2.64-.46,1.26-1.01,2.72-1.58,4.28.8.4,1.52.79,2.26,1.13,7.58,3.47,15.45,4.02,23.48,2.08,5.9-1.42,10.69-4.57,13.84-9.93,2.92-4.97,3.57-10.39,3.11-16.04M785.27,28.57h4.93V6.81h-4.93v21.77ZM744.17,70.13h-4.97v21.84h4.97v-21.84ZM728.92,86.52c-2.12,0-6.17-.05-8.29.02-.88.03-1.24-.27-1.54-1.07-7.48-19.75-14.98-39.5-22.48-59.25-1.16-3.06-2.33-6.12-3.56-9.38-.85,2.14-1.66,4.07-2.35,6.04-.2.58-.23,1.35-.01,1.92,7.32,19.66,14.68,39.31,22.03,58.96.32.87.63,1.74,1.01,2.78h-13.82v5.23h29.02v-5.2c-.41-.02.35-.05,0-.05M665.41,67.06c.3-.79.71-.97,1.49-.97,9.27.03,18.54.02,27.82.02-.6-1.59-1.19-3.19-1.79-4.78-7.95.03-15.9.02-23.85.02h-1.4c.21-.58.38-1.05.55-1.51,6.67-17.24,13.35-34.48,20.02-51.73.55-1.43.22-1.94-1.27-1.94-6.18,0-12.36,0-18.54,0-.38,0-.75.03-1.11.05v5.25h14.27c-.18.49-.31.86-.45,1.22-9.46,24.2-18.92,48.41-28.35,72.62-.35.91-.77,1.26-1.77,1.21-1.96-.1-3.93-.03-5.91-.03v5.23h27.18v-5.25h-14.31c.15-.42.24-.69.34-.95,2.37-6.16,4.76-12.3,7.09-18.47M449.46,20.77h-5.34v65.61h-11.33v5.07h27.98v-5.12h-11.3V20.77ZM432.8,10.98h27.96v-4.86h-27.96v4.86ZM473.57,91.86c.37.02-.29,0,0,0M392.42,15.87c-.16,8.62-7.24,13.26-15.99,15.49,2.12-4.96,3.33-10.36,3.44-16.02C379.97,9.97,379.07,4.81,377.34,0c11.69,3.95,15.17,10.62,15.08,15.87M413.27,49c-6.27.24-11.42-4.8-11.42-11.06,0-1.56.32-3.04.9-4.39-2.08,3.37-3.41,8.06-4.8,13.48-.89,3.46-1.86,7.18-3.16,11.01,1.89,1.62,3.75,3.24,5.56,4.88,7.73,6.95,14.87,14.66,16.84,25.2,2.35,11.24-2.24,21.8-13.73,27.48,5.45-16.22-6.86-28.06-19.07-38.06-3.02,3.73-6.31,7.77-10.97,11.08-7.23,5.01-12.74,7.9-20.78,7.9-15.37,0-27.83-11.74-27.83-26.21,0-9.58,5.45-17.95,13.59-22.52-.09,1.03-.15,2.06-.15,3.11,0,15.89,10.98,29.35,26.17,34.05,5.62,1.74,11.76.15,15.86-4.09,1.23-1.27,2.36-2.56,3.41-3.88-3.68-2.99-7.31-5.83-10.42-8.56-7.08-6.09-13.74-12.71-20.12-19.52-11.09-11.85-13.71-31.24-3.04-41.62,3.01-2.93,7.19-6.21,12.39-7.1-5.74,26.76,13.63,41.91,31.45,57.16,1.22-3.68,2.14-7.25,2.99-10.56,2.8-10.9,5.49-19.54,15.07-19.87.27-.02.54-.03.82-.03,6.21,0,11.22,5.19,10.98,11.5-.22,5.74-4.86,10.41-10.56,10.63M384.01,100.18c4.34,0,7.86,3.55,7.86,7.92s-3.52,7.92-7.86,7.92-7.86-3.55-7.86-7.92,3.52-7.92,7.86-7.92"/></svg>